<svg xmlns="http://www.w3.org/2000/svg" viewBox="0 0 96 72" role="img" aria-label="Butterfly">
  <defs>
    <linearGradient id="wing" x1="0" y1="0" x2="1" y2="1">
      <stop offset="0" stop-color="#f4dca8"/>
      <stop offset="1" stop-color="#c99b54"/>
    </linearGradient>
  </defs>
  <path fill="url(#wing)" d="M46 31C31 5 5 6 10 27c2 10 16 16 34 10z"/>
  <path fill="url(#wing)" d="M50 31C65 5 91 6 86 27c-2 10-16 16-34 10z"/>
  <path fill="#fff4d7" opacity=".72" d="M44 34C29 25 17 27 22 37c4 8 14 8 24 2zm8 0c15-9 27-7 22 3-4 8-14 8-24 2z"/>
  <path fill="#604a2c" d="M47 26h3v25h-3z"/>
  <circle cx="48.5" cy="23" r="3" fill="#604a2c"/>
  <path d="M48 23 39 12m10 11 10-11" fill="none" stroke="#604a2c" stroke-width="1.5" stroke-linecap="round"/>
</svg>
